<mxfile host="app.diagrams.net" modified="2025-10-16T18:05:00.000Z" agent="converted-by-assistant" version="20.2.8" type="github">
  <diagram id="C5RBs43oDa-KdzZeNtuy" name="Page-1">
    <mxGraphModel dx="2873" dy="2076" grid="1" gridSize="10" guides="1" tooltips="1" connect="1" arrows="1" fold="1" page="1" pageScale="1" pageWidth="827" pageHeight="1169" math="0" shadow="0">
      <root>
        <mxCell id="WIyWlLk6GJQsqaUBKTNV-0" />
        <mxCell id="WIyWlLk6GJQsqaUBKTNV-1" parent="WIyWlLk6GJQsqaUBKTNV-0" />
        <mxCell id="Fg11PCQkLtcq3vdQLecm-108" value="No" style="edgeStyle=orthogonalEdgeStyle;rounded=0;orthogonalLoop=1;jettySize=auto;html=1;exitX=0.5;exitY=1;exitDx=0;exitDy=0;strokeColor=#000000;" edge="1" parent="WIyWlLk6GJQsqaUBKTNV-1" source="WIyWlLk6GJQsqaUBKTNV-3" target="Fg11PCQkLtcq3vdQLecm-106">
          <mxGeometry relative="1" as="geometry" />
        </mxCell>
        <mxCell id="WIyWlLk6GJQsqaUBKTNV-3" value="Country of residence is part of the EAEU" style="rounded=1;whiteSpace=wrap;html=1;fontSize=12;glass=0;strokeWidth=1;shadow=0;" parent="WIyWlLk6GJQsqaUBKTNV-1" vertex="1">
          <mxGeometry x="500" y="-90" width="120" height="40" as="geometry" />
        </mxCell>
        <mxCell id="Fg11PCQkLtcq3vdQLecm-0" value="More than 600,000 RUB or equivalent per year?" style="rounded=1;whiteSpace=wrap;html=1;fontSize=12;glass=0;strokeWidth=1;shadow=0;" vertex="1" parent="WIyWlLk6GJQsqaUBKTNV-1">
          <mxGeometry x="679" y="276.5" width="120" height="70" as="geometry" />
        </mxCell>
        <mxCell id="Fg11PCQkLtcq3vdQLecm-15" value="Did you notify the tax authority about opening the account?" style="rounded=1;whiteSpace=wrap;html=1;fontSize=12;glass=0;strokeWidth=1;shadow=0;" vertex="1" parent="WIyWlLk6GJQsqaUBKTNV-1">
          <mxGeometry x="302" y="269.5" width="120" height="40" as="geometry" />
        </mxCell>
        <mxCell id="Fg11PCQkLtcq3vdQLecm-34" value="CRS does not provide for exchange of information about tax non-residents" style="shape=document;whiteSpace=wrap;html=1;boundedLbl=1;" vertex="1" parent="WIyWlLk6GJQsqaUBKTNV-1">
          <mxGeometry x="945" y="-110" width="120" height="106.5" as="geometry" />
        </mxCell>
        <mxCell id="Fg11PCQkLtcq3vdQLecm-38" value="See 'Currency residency' diagram" style="strokeWidth=2;html=1;shape=mxgraph.flowchart.delay;whiteSpace=wrap;" vertex="1" parent="WIyWlLk6GJQsqaUBKTNV-1">
          <mxGeometry x="1178" y="18.5" width="109" height="60" as="geometry" />
        </mxCell>
        <mxCell id="Fg11PCQkLtcq3vdQLecm-39" value="" style="shape=sumEllipse;perimeter=ellipsePerimeter;whiteSpace=wrap;html=1;backgroundOutline=1;fillColor=#99FF99;" vertex="1" parent="WIyWlLk6GJQsqaUBKTNV-1">
          <mxGeometry x="885" y="23.5" width="50" height="50" as="geometry" />
        </mxCell>
        <mxCell id="Fg11PCQkLtcq3vdQLecm-41" value="You are not a tax\nresident" style="text;html=1;align=center;verticalAlign=middle;resizable=0;points=[];autosize=1;strokeColor=none;fillColor=none;" vertex="1" parent="WIyWlLk6GJQsqaUBKTNV-1">
          <mxGeometry x="850" y="73.5" width="120" height="40" as="geometry" />
        </mxCell>
        ...
      </root>
    </mxGraphModel>
  </diagram>
</mxfile>